<svg width="26" height="26" viewBox="0 0 26 26" fill="none" xmlns="http://www.w3.org/2000/svg">
<path d="M22.3472 0.125C23.0839 0.125 23.7905 0.417658 24.3114 0.938592C24.8323 1.45953 25.125 2.16607 25.125 2.90278V22.3472C25.125 23.0839 24.8323 23.7905 24.3114 24.3114C23.7905 24.8323 23.0839 25.125 22.3472 25.125H2.90278C2.16607 25.125 1.45953 24.8323 0.938592 24.3114C0.417658 23.7905 0.125 23.0839 0.125 22.3472V2.90278C0.125 2.16607 0.417658 1.45953 0.938592 0.938592C1.45953 0.417658 2.16607 0.125 2.90278 0.125H22.3472ZM21.6528 21.6528V14.2917C21.6528 13.0908 21.1757 11.9392 20.3266 11.09C19.4775 10.2409 18.3258 9.76389 17.125 9.76389C15.9444 9.76389 14.5694 10.4861 13.9028 11.5694V10.0278H10.0278V21.6528H13.9028V14.8056C13.9028 13.7361 14.7639 12.8611 15.8333 12.8611C16.349 12.8611 16.8436 13.066 17.2083 13.4306C17.5729 13.7953 17.7778 14.2899 17.7778 14.8056V21.6528H21.6528ZM5.51389 7.84722C6.13273 7.84722 6.72622 7.60139 7.1638 7.1638C7.60139 6.72622 7.84722 6.13273 7.84722 5.51389C7.84722 4.22222 6.80556 3.16667 5.51389 3.16667C4.89137 3.16667 4.29434 3.41396 3.85415 3.85415C3.41396 4.29434 3.16667 4.89137 3.16667 5.51389C3.16667 6.80556 4.22222 7.84722 5.51389 7.84722ZM7.44444 21.6528V10.0278H3.59722V21.6528H7.44444Z" fill="#646464"/>
</svg>
